{"title":"Unknown 2011 DVDRiP XViD AC3 - DTRG - SAFCuk009","uid":6422504,"size":1423431376,"categoryP":"video","categoryS":"movies","magnet":"?xt=urn:btih:b5236e34687ba6e27e8336cef5b2f221988a3491&amp;dn=Unknown+2011+DVDRiP+XViD+AC3+-+DTRG+-+SAFCuk009&amp;tr=udp%3A%2F%2Ftracker.openbittorrent.com%3A80&amp;tr=udp%3A%2F%2Fopen.demonii.com%3A1337&amp;tr=udp%3A%2F%2Ftracker.coppersurfer.tk%3A6969&amp;tr=udp%3A%2F%2Fexodus.desync.com%3A6969","seeders":0,"leechers":1,"uploader":"SAFCukO09","files":4,"time":1306347510,"description":"Format : AVI\nFormat/Info : Audio Video Interleave\nFile size : 1.32 GiB\nDuration : 1h 50mn\nOverall bit rate : 1 717 Kbps\nWriting application : VirtualDubMod 1.5.10.3 | www.virtualdub-fr.org || (build 2550/release)\nWriting library : VirtualDubMod build 2550/release\n\nVideo\nID : 0\nFormat : MPEG-4 Visual\nFormat profile : Advanced Simple@L5\nFormat settings, BVOP : 2\nFormat settings, QPel : No\nFormat settings, GMC : No warppoints\nFormat settings, Matrix : Default (MPEG)\nMuxing mode : Packed bitstream\nCodec ID : XVID\nCodec ID/Hint : XviD\nDuration : 1h 50mn\nBit rate : 1 450 Kbps\nWidth : 720 pixels\nHeight : 304 pixels\nDisplay aspect ratio : 2.35:1\nFrame rate : 29.970 fps\nColor space : YUV\nChroma subsampling : 4:2:0\nBit depth : 8 bits\nScan type : Progressive\nCompression mode : Lossy\nBits/(Pixel*Frame) : 0.221\nStream size : 1.12 GiB (84%)\nWriting library : XviD 61\n\nAudio\nID : 1\nFormat : AC-3\nFormat/Info : Audio Coding 3\nMode extension : CM (complete main)\nCodec ID : 2000\nDuration : 1h 50mn\nBit rate mode : Constant\nBit rate : 256 Kbps\nChannel(s) : 2 channels\nChannel positions : Front: L R\nSampling rate : 48.0 KHz\nBit depth : 16 bits\nCompression mode : Lossy\nStream size : 202 MiB (15%)\nAlignment : Aligned on interleaves\nInterleave, duration : 33 ms (1.00 video frame)\nInterleave, preload duration : 512 ms\n\n\n\n &lt;a href=&quot;\nhttp://www.imdb.com/title/tt1401152/&quot; rel=&quot;nofollow&quot; target=&quot;_NEW&quot;&gt;\nhttp://www.imdb.com/title/tt1401152/&lt;/a&gt;\n\n\n\n\n\n\n\nUsers: 7.2/10 (14,767 votes) 133 reviews | Critics: 235 reviews Metascore: 56/100 (based on 38 reviews from Metacritic.com)\n\nA man awakens from a coma, only to discover that someone has taken on his identity and that no one, (not even his wife), believes him. With the help of a young woman, he sets out to prove who he is.\nDirector:\nJaume Collet-Serra\nWriters:\nOliver Butcher (screenplay), Stephen Cornwell (screenplay), and 1 more credit Ã‚Â»\nStars:\nLiam Neeson, Diane Kruger and January Jones\n\n\n\n\n\n\n\n\n\n\n\n\n\n\n\n\nSource Used\n\nKINOPARK ............ Thanks\n\n\nNo matter what anyone says the dvdrip tag on this release is right\n\n\nGreetz to IMAGiNE,Flawl3ss,DiLLoN,BDK,NOiR,TOXiCiNK,THC,Ez,Rx,Boobyblue,TaRiQ786,LKRG,CrEwSaDe\n","torrent":{"xt":"urn:btih:b5236e34687ba6e27e8336cef5b2f221988a3491","amp;dn":"Unknown+2011+DVDRiP+XViD+AC3+-+DTRG+-+SAFCuk009","amp;tr":["udp%3A%2F%2Ftracker.openbittorrent.com%3A80","udp%3A%2F%2Fopen.demonii.com%3A1337","udp%3A%2F%2Ftracker.coppersurfer.tk%3A6969","udp%3A%2F%2Fexodus.desync.com%3A6969"],"infoHash":"b5236e34687ba6e27e8336cef5b2f221988a3491","infoHashBuffer":{"type":"Buffer","data":[181,35,110,52,104,123,166,226,126,131,54,206,245,178,242,33,152,138,52,145]},"announce":[],"urlList":[]}}